# xmcd
#
# Track frame offsets:
#	150
#	14302
#	27109
#	46430
#	63464
#	98146
#	112108
#	148599
#	164533
#	192276
#	204381
#	240376
#	263583
#	300858
#	317697
#
# Disc length: 4729 seconds
#
# Revision: 0
# Processed by: cddbd v1.5.2PL0 Copyright (c) Steve Scherf et al.
# Submitted via: EZCDAudioConverter 2.1.7.1
#
DISCID=c312770f
DTITLE=Jah Wobble - Redux 4/6
DYEAR=1900
DGENRE=
TTITLE0=Jah Wobble and Julie Campbell - Slavetown (Part 1)
TTITLE1=Jah Wobble and Julie Campbell - Slavetown (Part 2)
TTITLE2=Jah Wobble - Car Ad Music 3
TTITLE3=Jah Wobble and The Modern Jazz Ensemble - Country Cousin
TTITLE4=Jah Wobble - Hit Me
TTITLE5=Jah Wobble and Bill Sharpe - Rush Hour
TTITLE6=Jah Wobble, Bill Laswell - Virus B
TTITLE7=Jah Wobble - Paternal Kindness
TTITLE8=Jah Wobble - One In 7
TTITLE9=Jah Wobble - Rhonda
TTITLE10=Jah Wobble and Bill Sharpe - Loquacious Loretta
TTITLE11=Jah Wobble - Car Ad Music 6
TTITLE12=Jah Wobble's Invaders Of The Heart - Market Rasen
TTITLE13=Jah Wobble's Invaders Of The Heart - Limehouse Cut
TTITLE14=Jah Wobble and The Modern Jazz Ensemble - West End
EXTD=
EXTT0=
EXTT1=
EXTT2=
EXTT3=
EXTT4=
EXTT5=
EXTT6=
EXTT7=
EXTT8=
EXTT9=
EXTT10=
EXTT11=
EXTT12=
EXTT13=
EXTT14=
PLAYORDER=
